<svg width="34" height="34" viewBox="0 0 34 34" fill="none" xmlns="http://www.w3.org/2000/svg">
<g clip-path="url(#clip0_1_2244)">
<path d="M18.4168 16.9997H22.6668L15.5835 26.9163V19.833H11.3335L18.4168 9.91634V16.9997ZM15.5835 8.49967H9.91683V28.333H24.0835V8.49967H18.4168V5.66634H15.5835V8.49967ZM12.7502 5.66634V4.24967C12.7502 3.87395 12.8994 3.51362 13.1651 3.24794C13.4308 2.98226 13.7911 2.83301 14.1668 2.83301H19.8335C20.2092 2.83301 20.5696 2.98226 20.8352 3.24794C21.1009 3.51362 21.2502 3.87395 21.2502 4.24967V5.66634H25.5002C25.8759 5.66634 26.2362 5.8156 26.5019 6.08127C26.7676 6.34695 26.9168 6.70728 26.9168 7.08301V29.7497C26.9168 30.1254 26.7676 30.4857 26.5019 30.7514C26.2362 31.0171 25.8759 31.1663 25.5002 31.1663H8.50016C8.12444 31.1663 7.76411 31.0171 7.49843 30.7514C7.23275 30.4857 7.0835 30.1254 7.0835 29.7497V7.08301C7.0835 6.70728 7.23275 6.34695 7.49843 6.08127C7.76411 5.8156 8.12444 5.66634 8.50016 5.66634H12.7502Z" fill="#F0B14E"/>
</g>
<defs>
<clipPath id="clip0_1_2244">
<rect width="34" height="34" fill="white"/>
</clipPath>
</defs>
</svg>
