<svg width="34" height="34" viewBox="0 0 34 34" fill="none" xmlns="http://www.w3.org/2000/svg">
<g clip-path="url(#clip0_1_2211)">
<path d="M23.3748 4.25C27.6787 4.25 31.1665 7.79167 31.1665 12.75C31.1665 22.6667 20.5415 28.3333 16.9998 30.4583C14.1991 28.7782 6.96559 24.8809 4.06425 18.4181L1.4165 18.4167V15.5833H3.13067C2.938 14.6823 2.83317 13.7388 2.83317 12.75C2.83317 7.79167 6.37484 4.25 10.6248 4.25C13.2598 4.25 15.5832 5.66667 16.9998 7.08333C18.4165 5.66667 20.7398 4.25 23.3748 4.25ZM23.3748 7.08333C21.8505 7.08333 20.2015 7.89083 19.003 9.0865L16.9998 11.0897L14.9967 9.0865C13.7982 7.89083 12.1492 7.08333 10.6248 7.08333C7.8765 7.08333 5.6665 9.42933 5.6665 12.75C5.6665 13.7204 5.794 14.6653 6.04475 15.5833H9.11467L12.0415 10.7043L16.2915 17.7877L17.6147 15.5833H24.0832V18.4167H19.2183L16.2915 23.2957L12.0415 16.2123L10.7183 18.4167H7.23617C8.35534 20.3632 10.0483 22.1963 12.2469 23.9459C13.3023 24.7846 14.4286 25.568 15.6767 26.3542C16.1003 26.622 16.5196 26.8784 16.9998 27.1646C17.4801 26.8784 17.8994 26.622 18.323 26.3557C19.5711 25.568 20.6973 24.7846 21.7513 23.9459C25.9744 20.5884 28.3332 16.9192 28.3332 12.75C28.3332 9.40667 26.1558 7.08333 23.3748 7.08333Z" fill="#F0B14E"/>
</g>
<defs>
<clipPath id="clip0_1_2211">
<rect width="34" height="34" fill="white"/>
</clipPath>
</defs>
</svg>
