<svg width="34" height="34" viewBox="0 0 34 34" fill="none" xmlns="http://www.w3.org/2000/svg">
<g clip-path="url(#clip0_1_2251)">
<path d="M17.0002 31.1663C9.17591 31.1663 2.8335 24.8239 2.8335 16.9997C2.8335 9.17543 9.17591 2.83301 17.0002 2.83301C24.8244 2.83301 31.1668 9.17543 31.1668 16.9997C31.1668 24.8239 24.8244 31.1663 17.0002 31.1663ZM17.0002 28.333C20.006 28.333 22.8886 27.139 25.014 25.0136C27.1395 22.8881 28.3335 20.0055 28.3335 16.9997C28.3335 13.9939 27.1395 11.1112 25.014 8.9858C22.8886 6.86039 20.006 5.66634 17.0002 5.66634C13.9944 5.66634 11.1117 6.86039 8.98629 8.9858C6.86087 11.1112 5.66683 13.9939 5.66683 16.9997C5.66683 20.0055 6.86087 22.8881 8.98629 25.0136C11.1117 27.139 13.9944 28.333 17.0002 28.333ZM15.5835 21.2497H18.4168V24.083H15.5835V21.2497ZM15.5835 9.91634H18.4168V18.4163H15.5835V9.91634Z" fill="#F37A92"/>
</g>
<defs>
<clipPath id="clip0_1_2251">
<rect width="34" height="34" fill="white"/>
</clipPath>
</defs>
</svg>
