<svg width="34" height="34" viewBox="0 0 34 34" fill="none" xmlns="http://www.w3.org/2000/svg">
<g clip-path="url(#clip0_1_2227)">
<path d="M18.5866 24.1159L12.638 20.8717C11.8614 21.702 10.853 22.2795 9.7439 22.5291C8.63478 22.7787 7.47621 22.6889 6.41877 22.2715C5.36133 21.854 4.45391 21.1281 3.81444 20.1881C3.17496 19.2482 2.83301 18.1376 2.83301 17.0007C2.83301 15.8638 3.17496 14.7533 3.81444 13.8133C4.45391 12.8733 5.36133 12.1474 6.41877 11.7299C7.47621 11.3125 8.63478 11.2227 9.7439 11.4723C10.853 11.7219 11.8614 12.2994 12.638 13.1297L18.588 9.8855C18.2503 8.54827 18.4117 7.13375 19.0423 5.90708C19.6728 4.68041 20.7291 3.72581 22.0131 3.22221C23.2971 2.71861 24.7207 2.7006 26.017 3.17154C27.3134 3.64248 28.3934 4.57005 29.0548 5.78037C29.7162 6.99069 29.9134 8.40067 29.6096 9.74602C29.3057 11.0914 28.5216 12.2797 27.4043 13.0883C26.287 13.8969 24.9131 14.2702 23.5401 14.1383C22.1672 14.0064 20.8896 13.3783 19.9466 12.3717L13.9966 15.6159C14.225 16.5245 14.225 17.4755 13.9966 18.3841L19.9452 21.6282C20.8882 20.6217 22.1658 19.9936 23.5387 19.8617C24.9116 19.7298 26.2855 20.1031 27.4029 20.9117C28.5202 21.7203 29.3043 22.9086 29.6082 24.254C29.912 25.5993 29.7148 27.0093 29.0534 28.2196C28.392 29.43 27.3119 30.3575 26.0156 30.8285C24.7193 31.2994 23.2957 31.2814 22.0117 30.7778C20.7277 30.2742 19.6714 29.3196 19.0409 28.0929C18.4103 26.8663 18.2488 25.4517 18.5866 24.1145V24.1159ZM8.49997 19.8333C9.25141 19.8333 9.97208 19.5348 10.5034 19.0035C11.0348 18.4721 11.3333 17.7514 11.3333 17C11.3333 16.2486 11.0348 15.5279 10.5034 14.9965C9.97208 14.4652 9.25141 14.1667 8.49997 14.1667C7.74852 14.1667 7.02785 14.4652 6.4965 14.9965C5.96514 15.5279 5.66663 16.2486 5.66663 17C5.66663 17.7514 5.96514 18.4721 6.4965 19.0035C7.02785 19.5348 7.74852 19.8333 8.49997 19.8333ZM24.0833 11.3333C24.8347 11.3333 25.5554 11.0348 26.0868 10.5035C26.6181 9.97212 26.9166 9.25145 26.9166 8.5C26.9166 7.74855 26.6181 7.02788 26.0868 6.49653C25.5554 5.96518 24.8347 5.66667 24.0833 5.66667C23.3319 5.66667 22.6112 5.96518 22.0798 6.49653C21.5485 7.02788 21.25 7.74855 21.25 8.5C21.25 9.25145 21.5485 9.97212 22.0798 10.5035C22.6112 11.0348 23.3319 11.3333 24.0833 11.3333ZM24.0833 28.3333C24.8347 28.3333 25.5554 28.0348 26.0868 27.5035C26.6181 26.9721 26.9166 26.2514 26.9166 25.5C26.9166 24.7486 26.6181 24.0279 26.0868 23.4965C25.5554 22.9652 24.8347 22.6667 24.0833 22.6667C23.3319 22.6667 22.6112 22.9652 22.0798 23.4965C21.5485 24.0279 21.25 24.7486 21.25 25.5C21.25 26.2514 21.5485 26.9721 22.0798 27.5035C22.6112 28.0348 23.3319 28.3333 24.0833 28.3333Z" fill="#F0B14E"/>
</g>
<defs>
<clipPath id="clip0_1_2227">
<rect width="34" height="34" fill="white"/>
</clipPath>
</defs>
</svg>
