<svg width="34" height="34" viewBox="0 0 34 34" fill="none" xmlns="http://www.w3.org/2000/svg">
<g clip-path="url(#clip0_1_2219)">
<path d="M21.9583 2.83301C22.689 2.83293 23.4108 2.99439 24.0719 3.30584C24.733 3.61729 25.3171 4.07102 25.7824 4.63456C26.2476 5.19811 26.5826 5.85753 26.7632 6.56564C26.9439 7.27375 26.9658 8.01303 26.8273 8.73059L26.8061 8.82409C28.0386 9.23522 29.1161 10.0129 29.8945 11.0532C30.6728 12.0935 31.115 13.3467 31.1616 14.6451C31.2083 15.9435 30.8573 17.2251 30.1557 18.3186C29.454 19.4121 28.4351 20.2652 27.2353 20.7638L25.6968 29.982C25.6418 30.3128 25.4713 30.6134 25.2155 30.8302C24.9597 31.0471 24.6353 31.1662 24.3 31.1663H9.69983C9.3645 31.1662 9.04009 31.0471 8.78432 30.8302C8.52855 30.6134 8.358 30.3128 8.303 29.982L6.84525 21.2412C5.86481 21.1856 4.93389 20.7921 4.21071 20.1278C3.48754 19.4634 3.01674 18.5691 2.87836 17.5969C2.73997 16.6247 2.94253 15.6346 3.45161 14.7948C3.96068 13.955 4.74485 13.3175 5.67083 12.9905L5.66658 12.7497C5.6663 11.3152 6.02905 9.90406 6.72103 8.64757C7.41301 7.39107 8.41172 6.33014 9.62414 5.56357C10.8366 4.797 12.2233 4.34973 13.6551 4.26342C15.087 4.1771 16.5174 4.45455 17.8131 5.06993C18.264 4.38225 18.879 3.81768 19.6027 3.42715C20.3264 3.03662 21.1359 2.83243 21.9583 2.83301ZM12.7499 21.2497H9.71825L10.8997 28.333H12.7499V21.2497ZM18.4166 21.2497H15.5833V28.333H18.4166V21.2497ZM24.2802 21.2497H21.2499V28.333H23.0987L24.2802 21.2497ZM14.1666 7.08301C11.1321 7.08301 8.65433 9.46868 8.507 12.4196L8.49992 12.6987L8.50417 12.9395C8.51418 13.4958 8.36019 14.0427 8.0614 14.5121C7.76261 14.9814 7.33225 15.3524 6.824 15.5788L6.6115 15.6623C6.29694 15.7743 6.03199 15.9938 5.86332 16.2819C5.69465 16.5701 5.63308 16.9086 5.68946 17.2377C5.74583 17.5668 5.91654 17.8655 6.1715 18.0811C6.42647 18.2967 6.74934 18.4154 7.08325 18.4163H24.7916C25.3152 18.4163 25.8323 18.3002 26.3057 18.0764C26.7791 17.8525 27.1969 17.5264 27.5291 17.1217C27.8614 16.7169 28.0997 16.2435 28.227 15.7356C28.3543 15.2277 28.3674 14.6979 28.2653 14.1843C28.1632 13.6707 27.9485 13.1861 27.6367 12.7655C27.3248 12.3448 26.9236 11.9985 26.4618 11.7516C26.0001 11.5046 25.4893 11.3632 24.9663 11.3373C24.4433 11.3115 23.9211 11.4019 23.4373 11.6022L23.1893 11.7169C22.5356 12.0538 21.7766 12.1233 21.0726 11.9107C20.3686 11.6982 19.7748 11.2202 19.4167 10.5779L19.3176 10.3838C18.8648 9.39845 18.1388 8.56366 17.2258 7.97857C16.3128 7.39348 15.251 7.08266 14.1666 7.08301ZM21.9583 5.66634C21.591 5.66627 21.23 5.76136 20.9105 5.94236C20.5909 6.12336 20.3238 6.38408 20.135 6.69909C20.8665 7.4193 21.4617 8.26594 21.8917 9.19809C22.5207 8.87509 23.2092 8.65409 23.9402 8.55634C24.0644 8.23446 24.1083 7.88717 24.0683 7.54449C24.0282 7.20181 23.9053 6.87405 23.7101 6.58951C23.515 6.30498 23.2535 6.07223 22.9483 5.91139C22.6431 5.75055 22.3033 5.66644 21.9583 5.66634Z" fill="#5DBD6D"/>
</g>
<defs>
<clipPath id="clip0_1_2219">
<rect width="34" height="34" fill="white"/>
</clipPath>
</defs>
</svg>
