<svg width="34" height="34" viewBox="0 0 34 34" fill="none" xmlns="http://www.w3.org/2000/svg">
<g clip-path="url(#clip0_1_2235)">
<path d="M18.4166 2.83301V4.64351L25.4999 7.00651L30.6453 5.29234L31.542 7.97834L27.2467 9.41059L31.6327 21.4692C30.0857 23.08 27.9083 24.083 25.4999 24.083C23.0902 24.083 20.9142 23.08 19.3672 21.4692L23.7504 9.41059L18.4166 7.63125V26.9163H24.0833V29.7497H9.9166V26.9163H15.5833V7.63125L10.2453 9.41059L14.6313 21.4692C13.0857 23.08 10.9083 24.083 8.49994 24.083C6.09019 24.083 3.91419 23.08 2.36719 21.4692L6.75035 9.41059L2.45785 7.97975L3.3546 5.29092L8.49994 7.00509L15.5833 4.64351V2.83301H18.4166ZM25.4999 12.8956L22.7261 20.5257C23.5577 20.9947 24.5069 21.2497 25.4999 21.2497C26.4916 21.2497 27.4408 20.9947 28.2738 20.5272L25.4999 12.8942V12.8956ZM8.49994 12.8956L5.7261 20.5257C6.55769 20.9947 7.50685 21.2497 8.49994 21.2497C9.4916 21.2497 10.4408 20.9947 11.2738 20.5272L8.49994 12.8942V12.8956Z" fill="#F37A92"/>
</g>
<defs>
<clipPath id="clip0_1_2235">
<rect width="34" height="34" fill="white"/>
</clipPath>
</defs>
</svg>
